<svg width="428" height="926" viewBox="0 0 428 926" fill="none" xmlns="http://www.w3.org/2000/svg">
<rect opacity="0.5" width="428" height="926" fill="url(#paint0_radial_1_1900)"/>
<g opacity="0.5" filter="url(#filter0_f_1_1900)">
<ellipse cx="214" cy="-88" rx="214" ry="140" fill="#9955FF"/>
</g>
<rect opacity="0.5" width="428" height="228" transform="matrix(1 0 0 -1 0 926)" fill="url(#paint1_radial_1_1900)"/>
<g opacity="0.5" filter="url(#filter1_f_1_1900)">
<ellipse cx="214" cy="140" rx="214" ry="140" transform="matrix(1 0 0 -1 0 1154)" fill="#9955FF"/>
</g>
<path d="M4.10436 -8L7.54557 -0.00915384L16.2087 0.79433L9.67236 6.53643L11.5853 15.0239L4.10436 10.5818L-3.37655 15.0239L-1.46365 6.53643L-8 0.79433L0.66314 -0.00915384L4.10436 -8Z" fill="url(#paint2_linear_1_1900)"/>
<path d="M88.1044 -8L91.5456 -0.00915384L100.209 0.79433L93.6724 6.53643L95.5853 15.0239L88.1044 10.5818L80.6235 15.0239L82.5364 6.53643L76 0.79433L84.6631 -0.00915384L88.1044 -8Z" fill="url(#paint3_linear_1_1900)"/>
<path d="M46.1044 26.3636L51.6103 39.149L65.4713 40.4346L55.0132 49.6219L58.0738 63.2018L46.1044 56.0945L34.1349 63.2018L37.1955 49.6219L26.7374 40.4346L40.5984 39.149L46.1044 26.3636Z" fill="url(#paint4_linear_1_1900)"/>
<path d="M91.5456 83.9908L88.1044 76L84.6631 83.9908L76 84.7943L82.5364 90.5364L80.6235 99.0238L88.1044 94.5818L95.5853 99.0238L93.6724 90.5364L100.209 84.7943L91.5456 83.9908Z" fill="url(#paint5_linear_1_1900)"/>
<path d="M7.54557 83.9908L4.10436 76L0.66314 83.9908L-8 84.7943L-1.46365 90.5364L-3.37655 99.0238L4.10436 94.5818L11.5853 99.0238L9.67236 90.5364L16.2087 84.7943L7.54557 83.9908Z" fill="url(#paint6_linear_1_1900)"/>
<path d="M130.104 26.3636L135.61 39.149L149.471 40.4346L139.013 49.6219L142.074 63.2018L130.104 56.0945L118.135 63.2018L121.196 49.6219L110.737 40.4346L124.598 39.149L130.104 26.3636Z" fill="url(#paint7_linear_1_1900)"/>
<path d="M175.546 -0.00915384L172.104 -8L168.663 -0.00915384L160 0.79433L166.536 6.53643L164.623 15.0239L172.104 10.5818L179.585 15.0239L177.672 6.53643L184.209 0.79433L175.546 -0.00915384Z" fill="url(#paint8_linear_1_1900)"/>
<path d="M172.104 76L175.546 83.9908L184.209 84.7943L177.672 90.5364L179.585 99.0238L172.104 94.5818L164.623 99.0238L166.536 90.5364L160 84.7943L168.663 83.9908L172.104 76Z" fill="url(#paint9_linear_1_1900)"/>
<path d="M219.61 39.149L214.104 26.3636L208.598 39.149L194.737 40.4346L205.196 49.6219L202.135 63.2018L214.104 56.0945L226.074 63.2018L223.013 49.6219L233.471 40.4346L219.61 39.149Z" fill="url(#paint10_linear_1_1900)"/>
<path d="M256.104 -8L259.546 -0.00915384L268.209 0.79433L261.672 6.53643L263.585 15.0239L256.104 10.5818L248.623 15.0239L250.536 6.53643L244 0.79433L252.663 -0.00915384L256.104 -8Z" fill="url(#paint11_linear_1_1900)"/>
<path d="M259.546 83.9908L256.104 76L252.663 83.9908L244 84.7943L250.536 90.5364L248.623 99.0238L256.104 94.5818L263.585 99.0238L261.672 90.5364L268.209 84.7943L259.546 83.9908Z" fill="url(#paint12_linear_1_1900)"/>
<path d="M298.104 26.3636L303.61 39.149L317.471 40.4346L307.013 49.6219L310.074 63.2018L298.104 56.0945L286.135 63.2018L289.196 49.6219L278.737 40.4346L292.598 39.149L298.104 26.3636Z" fill="url(#paint13_linear_1_1900)"/>
<path d="M343.546 -0.00915384L340.104 -8L336.663 -0.00915384L328 0.79433L334.536 6.53643L332.623 15.0239L340.104 10.5818L347.585 15.0239L345.672 6.53643L352.209 0.79433L343.546 -0.00915384Z" fill="url(#paint14_linear_1_1900)"/>
<path d="M340.104 76L343.546 83.9908L352.209 84.7943L345.672 90.5364L347.585 99.0238L340.104 94.5818L332.623 99.0238L334.536 90.5364L328 84.7943L336.663 83.9908L340.104 76Z" fill="url(#paint15_linear_1_1900)"/>
<path d="M387.61 39.149L382.104 26.3636L376.598 39.149L362.737 40.4346L373.196 49.6219L370.135 63.2018L382.104 56.0945L394.074 63.2018L391.013 49.6219L401.471 40.4346L387.61 39.149Z" fill="url(#paint16_linear_1_1900)"/>
<path d="M424.104 -8L427.546 -0.00915384L436.209 0.79433L429.672 6.53643L431.585 15.0239L424.104 10.5818L416.623 15.0239L418.536 6.53643L412 0.79433L420.663 -0.00915384L424.104 -8Z" fill="url(#paint17_linear_1_1900)"/>
<path d="M427.546 83.9908L424.104 76L420.663 83.9908L412 84.7943L418.536 90.5364L416.623 99.0238L424.104 94.5818L431.585 99.0238L429.672 90.5364L436.209 84.7943L427.546 83.9908Z" fill="url(#paint18_linear_1_1900)"/>
<path d="M46.1044 110.364L51.6103 123.149L65.4713 124.435L55.0132 133.622L58.0738 147.202L46.1044 140.095L34.1349 147.202L37.1955 133.622L26.7374 124.435L40.5984 123.149L46.1044 110.364Z" fill="url(#paint19_linear_1_1900)"/>
<path d="M88.1044 160L91.5456 167.991L100.209 168.794L93.6724 174.536L95.5853 183.024L88.1044 178.582L80.6235 183.024L82.5364 174.536L76 168.794L84.6631 167.991L88.1044 160Z" fill="url(#paint20_linear_1_1900)"/>
<path d="M4.10436 160L7.54557 167.991L16.2087 168.794L9.67236 174.536L11.5853 183.024L4.10436 178.582L-3.37655 183.024L-1.46365 174.536L-8 168.794L0.66314 167.991L4.10436 160Z" fill="url(#paint21_linear_1_1900)"/>
<path d="M135.61 123.149L130.104 110.364L124.598 123.149L110.737 124.435L121.196 133.622L118.135 147.202L130.104 140.095L142.074 147.202L139.013 133.622L149.471 124.435L135.61 123.149Z" fill="url(#paint22_linear_1_1900)"/>
<path d="M175.546 167.991L172.104 160L168.663 167.991L160 168.794L166.536 174.536L164.623 183.024L172.104 178.582L179.585 183.024L177.672 174.536L184.209 168.794L175.546 167.991Z" fill="url(#paint23_linear_1_1900)"/>
<path d="M214.104 110.364L219.61 123.149L233.471 124.435L223.013 133.622L226.074 147.202L214.104 140.095L202.135 147.202L205.196 133.622L194.737 124.435L208.598 123.149L214.104 110.364Z" fill="url(#paint24_linear_1_1900)"/>
<path d="M256.104 160L259.546 167.991L268.209 168.794L261.672 174.536L263.585 183.024L256.104 178.582L248.623 183.024L250.536 174.536L244 168.794L252.663 167.991L256.104 160Z" fill="url(#paint25_linear_1_1900)"/>
<path d="M303.61 123.149L298.104 110.364L292.598 123.149L278.737 124.435L289.196 133.622L286.135 147.202L298.104 140.095L310.074 147.202L307.013 133.622L317.471 124.435L303.61 123.149Z" fill="url(#paint26_linear_1_1900)"/>
<path d="M343.546 167.991L340.104 160L336.663 167.991L328 168.794L334.536 174.536L332.623 183.024L340.104 178.582L347.585 183.024L345.672 174.536L352.209 168.794L343.546 167.991Z" fill="url(#paint27_linear_1_1900)"/>
<path d="M382.104 110.364L387.61 123.149L401.471 124.435L391.013 133.622L394.074 147.202L382.104 140.095L370.135 147.202L373.196 133.622L362.737 124.435L376.598 123.149L382.104 110.364Z" fill="url(#paint28_linear_1_1900)"/>
<path d="M424.104 160L427.546 167.991L436.209 168.794L429.672 174.536L431.585 183.024L424.104 178.582L416.623 183.024L418.536 174.536L412 168.794L420.663 167.991L424.104 160Z" fill="url(#paint29_linear_1_1900)"/>
<path d="M51.6103 207.149L46.1044 194.364L40.5984 207.149L26.7374 208.435L37.1955 217.622L34.1349 231.202L46.1044 224.095L58.0738 231.202L55.0132 217.622L65.4713 208.435L51.6103 207.149Z" fill="url(#paint30_linear_1_1900)"/>
<path d="M91.5456 251.991L88.1044 244L84.6631 251.991L76 252.794L82.5364 258.536L80.6235 267.024L88.1044 262.582L95.5853 267.024L93.6724 258.536L100.209 252.794L91.5456 251.991Z" fill="url(#paint31_linear_1_1900)"/>
<path d="M7.54557 251.991L4.10436 244L0.66314 251.991L-8 252.794L-1.46365 258.536L-3.37655 267.024L4.10436 262.582L11.5853 267.024L9.67236 258.536L16.2087 252.794L7.54557 251.991Z" fill="url(#paint32_linear_1_1900)"/>
<path d="M130.104 194.364L135.61 207.149L149.471 208.435L139.013 217.622L142.074 231.202L130.104 224.095L118.135 231.202L121.196 217.622L110.737 208.435L124.598 207.149L130.104 194.364Z" fill="url(#paint33_linear_1_1900)"/>
<path d="M172.104 244L175.546 251.991L184.209 252.794L177.672 258.536L179.585 267.024L172.104 262.582L164.623 267.024L166.536 258.536L160 252.794L168.663 251.991L172.104 244Z" fill="url(#paint34_linear_1_1900)"/>
<path d="M219.61 207.149L214.104 194.364L208.598 207.149L194.737 208.435L205.196 217.622L202.135 231.202L214.104 224.095L226.074 231.202L223.013 217.622L233.471 208.435L219.61 207.149Z" fill="url(#paint35_linear_1_1900)"/>
<path d="M259.546 251.991L256.104 244L252.663 251.991L244 252.794L250.536 258.536L248.623 267.024L256.104 262.582L263.585 267.024L261.672 258.536L268.209 252.794L259.546 251.991Z" fill="url(#paint36_linear_1_1900)"/>
<path d="M298.104 194.364L303.61 207.149L317.471 208.435L307.013 217.622L310.074 231.202L298.104 224.095L286.135 231.202L289.196 217.622L278.737 208.435L292.598 207.149L298.104 194.364Z" fill="url(#paint37_linear_1_1900)"/>
<path d="M340.104 244L343.546 251.991L352.209 252.794L345.672 258.536L347.585 267.024L340.104 262.582L332.623 267.024L334.536 258.536L328 252.794L336.663 251.991L340.104 244Z" fill="url(#paint38_linear_1_1900)"/>
<path d="M387.61 207.149L382.104 194.364L376.598 207.149L362.737 208.435L373.196 217.622L370.135 231.202L382.104 224.095L394.074 231.202L391.013 217.622L401.471 208.435L387.61 207.149Z" fill="url(#paint39_linear_1_1900)"/>
<path d="M427.546 251.991L424.104 244L420.663 251.991L412 252.794L418.536 258.536L416.623 267.024L424.104 262.582L431.585 267.024L429.672 258.536L436.209 252.794L427.546 251.991Z" fill="url(#paint40_linear_1_1900)"/>
<path d="M46.1044 278.364L51.6103 291.149L65.4713 292.435L55.0132 301.622L58.0738 315.202L46.1044 308.095L34.1349 315.202L37.1955 301.622L26.7374 292.435L40.5984 291.149L46.1044 278.364Z" fill="url(#paint41_linear_1_1900)"/>
<path d="M88.1044 328L91.5456 335.991L100.209 336.794L93.6724 342.536L95.5853 351.024L88.1044 346.582L80.6235 351.024L82.5364 342.536L76 336.794L84.6631 335.991L88.1044 328Z" fill="url(#paint42_linear_1_1900)"/>
<path d="M4.10436 328L7.54557 335.991L16.2087 336.794L9.67236 342.536L11.5853 351.024L4.10436 346.582L-3.37655 351.024L-1.46365 342.536L-8 336.794L0.66314 335.991L4.10436 328Z" fill="url(#paint43_linear_1_1900)"/>
<path d="M135.61 291.149L130.104 278.364L124.598 291.149L110.737 292.435L121.196 301.622L118.135 315.202L130.104 308.095L142.074 315.202L139.013 301.622L149.471 292.435L135.61 291.149Z" fill="url(#paint44_linear_1_1900)"/>
<path d="M175.546 335.991L172.104 328L168.663 335.991L160 336.794L166.536 342.536L164.623 351.024L172.104 346.582L179.585 351.024L177.672 342.536L184.209 336.794L175.546 335.991Z" fill="url(#paint45_linear_1_1900)"/>
<path d="M214.104 278.364L219.61 291.149L233.471 292.435L223.013 301.622L226.074 315.202L214.104 308.095L202.135 315.202L205.196 301.622L194.737 292.435L208.598 291.149L214.104 278.364Z" fill="url(#paint46_linear_1_1900)"/>
<path d="M256.104 328L259.546 335.991L268.209 336.794L261.672 342.536L263.585 351.024L256.104 346.582L248.623 351.024L250.536 342.536L244 336.794L252.663 335.991L256.104 328Z" fill="url(#paint47_linear_1_1900)"/>
<path d="M303.61 291.149L298.104 278.364L292.598 291.149L278.737 292.435L289.196 301.622L286.135 315.202L298.104 308.095L310.074 315.202L307.013 301.622L317.471 292.435L303.61 291.149Z" fill="url(#paint48_linear_1_1900)"/>
<path d="M343.546 335.991L340.104 328L336.663 335.991L328 336.794L334.536 342.536L332.623 351.024L340.104 346.582L347.585 351.024L345.672 342.536L352.209 336.794L343.546 335.991Z" fill="url(#paint49_linear_1_1900)"/>
<path d="M382.104 278.364L387.61 291.149L401.471 292.435L391.013 301.622L394.074 315.202L382.104 308.095L370.135 315.202L373.196 301.622L362.737 292.435L376.598 291.149L382.104 278.364Z" fill="url(#paint50_linear_1_1900)"/>
<path d="M424.104 328L427.546 335.991L436.209 336.794L429.672 342.536L431.585 351.024L424.104 346.582L416.623 351.024L418.536 342.536L412 336.794L420.663 335.991L424.104 328Z" fill="url(#paint51_linear_1_1900)"/>
<path d="M51.6103 375.149L46.1044 362.364L40.5984 375.149L26.7374 376.435L37.1955 385.622L34.1349 399.202L46.1044 392.095L58.0738 399.202L55.0132 385.622L65.4713 376.435L51.6103 375.149Z" fill="url(#paint52_linear_1_1900)"/>
<path d="M91.5456 419.991L88.1044 412L84.6631 419.991L76 420.794L82.5364 426.536L80.6235 435.024L88.1044 430.582L95.5853 435.024L93.6724 426.536L100.209 420.794L91.5456 419.991Z" fill="url(#paint53_linear_1_1900)"/>
<path d="M7.54557 419.991L4.10436 412L0.66314 419.991L-8 420.794L-1.46365 426.536L-3.37655 435.024L4.10436 430.582L11.5853 435.024L9.67236 426.536L16.2087 420.794L7.54557 419.991Z" fill="url(#paint54_linear_1_1900)"/>
<path d="M130.104 362.364L135.61 375.149L149.471 376.435L139.013 385.622L142.074 399.202L130.104 392.095L118.135 399.202L121.196 385.622L110.737 376.435L124.598 375.149L130.104 362.364Z" fill="url(#paint55_linear_1_1900)"/>
<path d="M172.104 412L175.546 419.991L184.209 420.794L177.672 426.536L179.585 435.024L172.104 430.582L164.623 435.024L166.536 426.536L160 420.794L168.663 419.991L172.104 412Z" fill="url(#paint56_linear_1_1900)"/>
<path d="M219.61 375.149L214.104 362.364L208.598 375.149L194.737 376.435L205.196 385.622L202.135 399.202L214.104 392.095L226.074 399.202L223.013 385.622L233.471 376.435L219.61 375.149Z" fill="url(#paint57_linear_1_1900)"/>
<path d="M259.546 419.991L256.104 412L252.663 419.991L244 420.794L250.536 426.536L248.623 435.024L256.104 430.582L263.585 435.024L261.672 426.536L268.209 420.794L259.546 419.991Z" fill="url(#paint58_linear_1_1900)"/>
<path d="M298.104 362.364L303.61 375.149L317.471 376.435L307.013 385.622L310.074 399.202L298.104 392.095L286.135 399.202L289.196 385.622L278.737 376.435L292.598 375.149L298.104 362.364Z" fill="url(#paint59_linear_1_1900)"/>
<path d="M340.104 412L343.546 419.991L352.209 420.794L345.672 426.536L347.585 435.024L340.104 430.582L332.623 435.024L334.536 426.536L328 420.794L336.663 419.991L340.104 412Z" fill="url(#paint60_linear_1_1900)"/>
<path d="M387.61 375.149L382.104 362.364L376.598 375.149L362.737 376.435L373.196 385.622L370.135 399.202L382.104 392.095L394.074 399.202L391.013 385.622L401.471 376.435L387.61 375.149Z" fill="url(#paint61_linear_1_1900)"/>
<path d="M427.546 419.991L424.104 412L420.663 419.991L412 420.794L418.536 426.536L416.623 435.024L424.104 430.582L431.585 435.024L429.672 426.536L436.209 420.794L427.546 419.991Z" fill="url(#paint62_linear_1_1900)"/>
<path d="M4.10436 934L7.54557 926.009L16.2087 925.206L9.67236 919.464L11.5853 910.976L4.10436 915.418L-3.37655 910.976L-1.46365 919.464L-8 925.206L0.66314 926.009L4.10436 934Z" fill="url(#paint63_linear_1_1900)"/>
<path d="M88.1044 934L91.5456 926.009L100.209 925.206L93.6724 919.464L95.5853 910.976L88.1044 915.418L80.6235 910.976L82.5364 919.464L76 925.206L84.6631 926.009L88.1044 934Z" fill="url(#paint64_linear_1_1900)"/>
<path d="M46.1044 899.636L51.6103 886.851L65.4713 885.565L55.0132 876.378L58.0738 862.798L46.1044 869.905L34.1349 862.798L37.1955 876.378L26.7374 885.565L40.5984 886.851L46.1044 899.636Z" fill="url(#paint65_linear_1_1900)"/>
<path d="M91.5456 842.009L88.1044 850L84.6631 842.009L76 841.206L82.5364 835.464L80.6235 826.976L88.1044 831.418L95.5853 826.976L93.6724 835.464L100.209 841.206L91.5456 842.009Z" fill="url(#paint66_linear_1_1900)"/>
<path d="M7.54557 842.009L4.10436 850L0.66314 842.009L-8 841.206L-1.46365 835.464L-3.37655 826.976L4.10436 831.418L11.5853 826.976L9.67236 835.464L16.2087 841.206L7.54557 842.009Z" fill="url(#paint67_linear_1_1900)"/>
<path d="M130.104 899.636L135.61 886.851L149.471 885.565L139.013 876.378L142.074 862.798L130.104 869.905L118.135 862.798L121.196 876.378L110.737 885.565L124.598 886.851L130.104 899.636Z" fill="url(#paint68_linear_1_1900)"/>
<path d="M175.546 926.009L172.104 934L168.663 926.009L160 925.206L166.536 919.464L164.623 910.976L172.104 915.418L179.585 910.976L177.672 919.464L184.209 925.206L175.546 926.009Z" fill="url(#paint69_linear_1_1900)"/>
<path d="M172.104 850L175.546 842.009L184.209 841.206L177.672 835.464L179.585 826.976L172.104 831.418L164.623 826.976L166.536 835.464L160 841.206L168.663 842.009L172.104 850Z" fill="url(#paint70_linear_1_1900)"/>
<path d="M219.61 886.851L214.104 899.636L208.598 886.851L194.737 885.565L205.196 876.378L202.135 862.798L214.104 869.905L226.074 862.798L223.013 876.378L233.471 885.565L219.61 886.851Z" fill="url(#paint71_linear_1_1900)"/>
<path d="M256.104 934L259.546 926.009L268.209 925.206L261.672 919.464L263.585 910.976L256.104 915.418L248.623 910.976L250.536 919.464L244 925.206L252.663 926.009L256.104 934Z" fill="url(#paint72_linear_1_1900)"/>
<path d="M259.546 842.009L256.104 850L252.663 842.009L244 841.206L250.536 835.464L248.623 826.976L256.104 831.418L263.585 826.976L261.672 835.464L268.209 841.206L259.546 842.009Z" fill="url(#paint73_linear_1_1900)"/>
<path d="M298.104 899.636L303.61 886.851L317.471 885.565L307.013 876.378L310.074 862.798L298.104 869.905L286.135 862.798L289.196 876.378L278.737 885.565L292.598 886.851L298.104 899.636Z" fill="url(#paint74_linear_1_1900)"/>
<path d="M343.546 926.009L340.104 934L336.663 926.009L328 925.206L334.536 919.464L332.623 910.976L340.104 915.418L347.585 910.976L345.672 919.464L352.209 925.206L343.546 926.009Z" fill="url(#paint75_linear_1_1900)"/>
<path d="M340.104 850L343.546 842.009L352.209 841.206L345.672 835.464L347.585 826.976L340.104 831.418L332.623 826.976L334.536 835.464L328 841.206L336.663 842.009L340.104 850Z" fill="url(#paint76_linear_1_1900)"/>
<path d="M387.61 886.851L382.104 899.636L376.598 886.851L362.737 885.565L373.196 876.378L370.135 862.798L382.104 869.905L394.074 862.798L391.013 876.378L401.471 885.565L387.61 886.851Z" fill="url(#paint77_linear_1_1900)"/>
<path d="M424.104 934L427.546 926.009L436.209 925.206L429.672 919.464L431.585 910.976L424.104 915.418L416.623 910.976L418.536 919.464L412 925.206L420.663 926.009L424.104 934Z" fill="url(#paint78_linear_1_1900)"/>
<path d="M427.546 842.009L424.104 850L420.663 842.009L412 841.206L418.536 835.464L416.623 826.976L424.104 831.418L431.585 826.976L429.672 835.464L436.209 841.206L427.546 842.009Z" fill="url(#paint79_linear_1_1900)"/>
<path d="M46.1044 815.636L51.6103 802.851L65.4713 801.565L55.0132 792.378L58.0738 778.798L46.1044 785.905L34.1349 778.798L37.1955 792.378L26.7374 801.565L40.5984 802.851L46.1044 815.636Z" fill="url(#paint80_linear_1_1900)"/>
<path d="M88.1044 766L91.5456 758.009L100.209 757.206L93.6724 751.464L95.5853 742.976L88.1044 747.418L80.6235 742.976L82.5364 751.464L76 757.206L84.6631 758.009L88.1044 766Z" fill="url(#paint81_linear_1_1900)"/>
<path d="M4.10436 766L7.54557 758.009L16.2087 757.206L9.67236 751.464L11.5853 742.976L4.10436 747.418L-3.37655 742.976L-1.46365 751.464L-8 757.206L0.66314 758.009L4.10436 766Z" fill="url(#paint82_linear_1_1900)"/>
<path d="M135.61 802.851L130.104 815.636L124.598 802.851L110.737 801.565L121.196 792.378L118.135 778.798L130.104 785.905L142.074 778.798L139.013 792.378L149.471 801.565L135.61 802.851Z" fill="url(#paint83_linear_1_1900)"/>
<path d="M175.546 758.009L172.104 766L168.663 758.009L160 757.206L166.536 751.464L164.623 742.976L172.104 747.418L179.585 742.976L177.672 751.464L184.209 757.206L175.546 758.009Z" fill="url(#paint84_linear_1_1900)"/>
<path d="M214.104 815.636L219.61 802.851L233.471 801.565L223.013 792.378L226.074 778.798L214.104 785.905L202.135 778.798L205.196 792.378L194.737 801.565L208.598 802.851L214.104 815.636Z" fill="url(#paint85_linear_1_1900)"/>
<path d="M256.104 766L259.546 758.009L268.209 757.206L261.672 751.464L263.585 742.976L256.104 747.418L248.623 742.976L250.536 751.464L244 757.206L252.663 758.009L256.104 766Z" fill="url(#paint86_linear_1_1900)"/>
<path d="M303.61 802.851L298.104 815.636L292.598 802.851L278.737 801.565L289.196 792.378L286.135 778.798L298.104 785.905L310.074 778.798L307.013 792.378L317.471 801.565L303.61 802.851Z" fill="url(#paint87_linear_1_1900)"/>
<path d="M343.546 758.009L340.104 766L336.663 758.009L328 757.206L334.536 751.464L332.623 742.976L340.104 747.418L347.585 742.976L345.672 751.464L352.209 757.206L343.546 758.009Z" fill="url(#paint88_linear_1_1900)"/>
<path d="M382.104 815.636L387.61 802.851L401.471 801.565L391.013 792.378L394.074 778.798L382.104 785.905L370.135 778.798L373.196 792.378L362.737 801.565L376.598 802.851L382.104 815.636Z" fill="url(#paint89_linear_1_1900)"/>
<path d="M424.104 766L427.546 758.009L436.209 757.206L429.672 751.464L431.585 742.976L424.104 747.418L416.623 742.976L418.536 751.464L412 757.206L420.663 758.009L424.104 766Z" fill="url(#paint90_linear_1_1900)"/>
<path d="M51.6103 718.851L46.1044 731.636L40.5984 718.851L26.7374 717.565L37.1955 708.378L34.1349 694.798L46.1044 701.905L58.0738 694.798L55.0132 708.378L65.4713 717.565L51.6103 718.851Z" fill="url(#paint91_linear_1_1900)"/>
<path d="M91.5456 674.009L88.1044 682L84.6631 674.009L76 673.206L82.5364 667.464L80.6235 658.976L88.1044 663.418L95.5853 658.976L93.6724 667.464L100.209 673.206L91.5456 674.009Z" fill="url(#paint92_linear_1_1900)"/>
<path d="M7.54557 674.009L4.10436 682L0.66314 674.009L-8 673.206L-1.46365 667.464L-3.37655 658.976L4.10436 663.418L11.5853 658.976L9.67236 667.464L16.2087 673.206L7.54557 674.009Z" fill="url(#paint93_linear_1_1900)"/>
<path d="M130.104 731.636L135.61 718.851L149.471 717.565L139.013 708.378L142.074 694.798L130.104 701.905L118.135 694.798L121.196 708.378L110.737 717.565L124.598 718.851L130.104 731.636Z" fill="url(#paint94_linear_1_1900)"/>
<path d="M172.104 682L175.546 674.009L184.209 673.206L177.672 667.464L179.585 658.976L172.104 663.418L164.623 658.976L166.536 667.464L160 673.206L168.663 674.009L172.104 682Z" fill="url(#paint95_linear_1_1900)"/>
<path d="M219.61 718.851L214.104 731.636L208.598 718.851L194.737 717.565L205.196 708.378L202.135 694.798L214.104 701.905L226.074 694.798L223.013 708.378L233.471 717.565L219.61 718.851Z" fill="url(#paint96_linear_1_1900)"/>
<path d="M259.546 674.009L256.104 682L252.663 674.009L244 673.206L250.536 667.464L248.623 658.976L256.104 663.418L263.585 658.976L261.672 667.464L268.209 673.206L259.546 674.009Z" fill="url(#paint97_linear_1_1900)"/>
<path d="M298.104 731.636L303.61 718.851L317.471 717.565L307.013 708.378L310.074 694.798L298.104 701.905L286.135 694.798L289.196 708.378L278.737 717.565L292.598 718.851L298.104 731.636Z" fill="url(#paint98_linear_1_1900)"/>
<path d="M340.104 682L343.546 674.009L352.209 673.206L345.672 667.464L347.585 658.976L340.104 663.418L332.623 658.976L334.536 667.464L328 673.206L336.663 674.009L340.104 682Z" fill="url(#paint99_linear_1_1900)"/>
<path d="M387.61 718.851L382.104 731.636L376.598 718.851L362.737 717.565L373.196 708.378L370.135 694.798L382.104 701.905L394.074 694.798L391.013 708.378L401.471 717.565L387.61 718.851Z" fill="url(#paint100_linear_1_1900)"/>
<path d="M427.546 674.009L424.104 682L420.663 674.009L412 673.206L418.536 667.464L416.623 658.976L424.104 663.418L431.585 658.976L429.672 667.464L436.209 673.206L427.546 674.009Z" fill="url(#paint101_linear_1_1900)"/>
<path d="M46.1044 647.636L51.6103 634.851L65.4713 633.565L55.0132 624.378L58.0738 610.798L46.1044 617.905L34.1349 610.798L37.1955 624.378L26.7374 633.565L40.5984 634.851L46.1044 647.636Z" fill="url(#paint102_linear_1_1900)"/>
<path d="M88.1044 598L91.5456 590.009L100.209 589.206L93.6724 583.464L95.5853 574.976L88.1044 579.418L80.6235 574.976L82.5364 583.464L76 589.206L84.6631 590.009L88.1044 598Z" fill="url(#paint103_linear_1_1900)"/>
<path d="M4.10436 598L7.54557 590.009L16.2087 589.206L9.67236 583.464L11.5853 574.976L4.10436 579.418L-3.37655 574.976L-1.46365 583.464L-8 589.206L0.66314 590.009L4.10436 598Z" fill="url(#paint104_linear_1_1900)"/>
<path d="M135.61 634.851L130.104 647.636L124.598 634.851L110.737 633.565L121.196 624.378L118.135 610.798L130.104 617.905L142.074 610.798L139.013 624.378L149.471 633.565L135.61 634.851Z" fill="url(#paint105_linear_1_1900)"/>
<path d="M175.546 590.009L172.104 598L168.663 590.009L160 589.206L166.536 583.464L164.623 574.976L172.104 579.418L179.585 574.976L177.672 583.464L184.209 589.206L175.546 590.009Z" fill="url(#paint106_linear_1_1900)"/>
<path d="M214.104 647.636L219.61 634.851L233.471 633.565L223.013 624.378L226.074 610.798L214.104 617.905L202.135 610.798L205.196 624.378L194.737 633.565L208.598 634.851L214.104 647.636Z" fill="url(#paint107_linear_1_1900)"/>
<path d="M256.104 598L259.546 590.009L268.209 589.206L261.672 583.464L263.585 574.976L256.104 579.418L248.623 574.976L250.536 583.464L244 589.206L252.663 590.009L256.104 598Z" fill="url(#paint108_linear_1_1900)"/>
<path d="M303.61 634.851L298.104 647.636L292.598 634.851L278.737 633.565L289.196 624.378L286.135 610.798L298.104 617.905L310.074 610.798L307.013 624.378L317.471 633.565L303.61 634.851Z" fill="url(#paint109_linear_1_1900)"/>
<path d="M343.546 590.009L340.104 598L336.663 590.009L328 589.206L334.536 583.464L332.623 574.976L340.104 579.418L347.585 574.976L345.672 583.464L352.209 589.206L343.546 590.009Z" fill="url(#paint110_linear_1_1900)"/>
<path d="M382.104 647.636L387.61 634.851L401.471 633.565L391.013 624.378L394.074 610.798L382.104 617.905L370.135 610.798L373.196 624.378L362.737 633.565L376.598 634.851L382.104 647.636Z" fill="url(#paint111_linear_1_1900)"/>
<path d="M424.104 598L427.546 590.009L436.209 589.206L429.672 583.464L431.585 574.976L424.104 579.418L416.623 574.976L418.536 583.464L412 589.206L420.663 590.009L424.104 598Z" fill="url(#paint112_linear_1_1900)"/>
<path d="M51.6103 550.851L46.1044 563.636L40.5984 550.851L26.7374 549.565L37.1955 540.378L34.1349 526.798L46.1044 533.905L58.0738 526.798L55.0132 540.378L65.4713 549.565L51.6103 550.851Z" fill="url(#paint113_linear_1_1900)"/>
<path d="M91.5456 506.009L88.1044 514L84.6631 506.009L76 505.206L82.5364 499.464L80.6235 490.976L88.1044 495.418L95.5853 490.976L93.6724 499.464L100.209 505.206L91.5456 506.009Z" fill="url(#paint114_linear_1_1900)"/>
<path d="M7.54557 506.009L4.10436 514L0.66314 506.009L-8 505.206L-1.46365 499.464L-3.37655 490.976L4.10436 495.418L11.5853 490.976L9.67236 499.464L16.2087 505.206L7.54557 506.009Z" fill="url(#paint115_linear_1_1900)"/>
<path d="M130.104 563.636L135.61 550.851L149.471 549.565L139.013 540.378L142.074 526.798L130.104 533.905L118.135 526.798L121.196 540.378L110.737 549.565L124.598 550.851L130.104 563.636Z" fill="url(#paint116_linear_1_1900)"/>
<path d="M172.104 514L175.546 506.009L184.209 505.206L177.672 499.464L179.585 490.976L172.104 495.418L164.623 490.976L166.536 499.464L160 505.206L168.663 506.009L172.104 514Z" fill="url(#paint117_linear_1_1900)"/>
<path d="M219.61 550.851L214.104 563.636L208.598 550.851L194.737 549.565L205.196 540.378L202.135 526.798L214.104 533.905L226.074 526.798L223.013 540.378L233.471 549.565L219.61 550.851Z" fill="url(#paint118_linear_1_1900)"/>
<path d="M259.546 506.009L256.104 514L252.663 506.009L244 505.206L250.536 499.464L248.623 490.976L256.104 495.418L263.585 490.976L261.672 499.464L268.209 505.206L259.546 506.009Z" fill="url(#paint119_linear_1_1900)"/>
<path d="M298.104 563.636L303.61 550.851L317.471 549.565L307.013 540.378L310.074 526.798L298.104 533.905L286.135 526.798L289.196 540.378L278.737 549.565L292.598 550.851L298.104 563.636Z" fill="url(#paint120_linear_1_1900)"/>
<path d="M340.104 514L343.546 506.009L352.209 505.206L345.672 499.464L347.585 490.976L340.104 495.418L332.623 490.976L334.536 499.464L328 505.206L336.663 506.009L340.104 514Z" fill="url(#paint121_linear_1_1900)"/>
<path d="M387.61 550.851L382.104 563.636L376.598 550.851L362.737 549.565L373.196 540.378L370.135 526.798L382.104 533.905L394.074 526.798L391.013 540.378L401.471 549.565L387.61 550.851Z" fill="url(#paint122_linear_1_1900)"/>
<path d="M427.546 506.009L424.104 514L420.663 506.009L412 505.206L418.536 499.464L416.623 490.976L424.104 495.418L431.585 490.976L429.672 499.464L436.209 505.206L427.546 506.009Z" fill="url(#paint123_linear_1_1900)"/>
<defs>
<filter id="filter0_f_1_1900" x="-200" y="-428" width="828" height="680" filterUnits="userSpaceOnUse" color-interpolation-filters="sRGB">
<feFlood flood-opacity="0" result="BackgroundImageFix"/>
<feBlend mode="normal" in="SourceGraphic" in2="BackgroundImageFix" result="shape"/>
<feGaussianBlur stdDeviation="100" result="effect1_foregroundBlur_1_1900"/>
</filter>
<filter id="filter1_f_1_1900" x="-200" y="674" width="828" height="680" filterUnits="userSpaceOnUse" color-interpolation-filters="sRGB">
<feFlood flood-opacity="0" result="BackgroundImageFix"/>
<feBlend mode="normal" in="SourceGraphic" in2="BackgroundImageFix" result="shape"/>
<feGaussianBlur stdDeviation="100" result="effect1_foregroundBlur_1_1900"/>
</filter>
<radialGradient id="paint0_radial_1_1900" cx="0" cy="0" r="1" gradientUnits="userSpaceOnUse" gradientTransform="translate(214 1.06655e-05) rotate(90) scale(926 438.107)">
<stop stop-color="#9955FF"/>
<stop offset="1" stop-color="#181A20"/>
</radialGradient>
<radialGradient id="paint1_radial_1_1900" cx="0" cy="0" r="1" gradientUnits="userSpaceOnUse" gradientTransform="translate(214 2.62606e-06) rotate(90) scale(228 438.107)">
<stop stop-color="#9955FF"/>
<stop offset="1" stop-color="#9955FF" stop-opacity="0"/>
</radialGradient>
<linearGradient id="paint2_linear_1_1900" x1="214.104" y1="-8" x2="214.104" y2="435.024" gradientUnits="userSpaceOnUse">
<stop stop-color="white" stop-opacity="0.08"/>
<stop offset="1" stop-color="white" stop-opacity="0"/>
</linearGradient>
<linearGradient id="paint3_linear_1_1900" x1="214.104" y1="-8" x2="214.104" y2="435.024" gradientUnits="userSpaceOnUse">
<stop stop-color="white" stop-opacity="0.08"/>
<stop offset="1" stop-color="white" stop-opacity="0"/>
</linearGradient>
<linearGradient id="paint4_linear_1_1900" x1="214.104" y1="-8" x2="214.104" y2="435.024" gradientUnits="userSpaceOnUse">
<stop stop-color="white" stop-opacity="0.08"/>
<stop offset="1" stop-color="white" stop-opacity="0"/>
</linearGradient>
<linearGradient id="paint5_linear_1_1900" x1="214.104" y1="-8" x2="214.104" y2="435.024" gradientUnits="userSpaceOnUse">
<stop stop-color="white" stop-opacity="0.08"/>
<stop offset="1" stop-color="white" stop-opacity="0"/>
</linearGradient>
<linearGradient id="paint6_linear_1_1900" x1="214.104" y1="-8" x2="214.104" y2="435.024" gradientUnits="userSpaceOnUse">
<stop stop-color="white" stop-opacity="0.08"/>
<stop offset="1" stop-color="white" stop-opacity="0"/>
</linearGradient>
<linearGradient id="paint7_linear_1_1900" x1="214.104" y1="-8" x2="214.104" y2="435.024" gradientUnits="userSpaceOnUse">
<stop stop-color="white" stop-opacity="0.08"/>
<stop offset="1" stop-color="white" stop-opacity="0"/>
</linearGradient>
<linearGradient id="paint8_linear_1_1900" x1="214.104" y1="-8" x2="214.104" y2="435.024" gradientUnits="userSpaceOnUse">
<stop stop-color="white" stop-opacity="0.08"/>
<stop offset="1" stop-color="white" stop-opacity="0"/>
</linearGradient>
<linearGradient id="paint9_linear_1_1900" x1="214.104" y1="-8" x2="214.104" y2="435.024" gradientUnits="userSpaceOnUse">
<stop stop-color="white" stop-opacity="0.08"/>
<stop offset="1" stop-color="white" stop-opacity="0"/>
</linearGradient>
<linearGradient id="paint10_linear_1_1900" x1="214.104" y1="-8" x2="214.104" y2="435.024" gradientUnits="userSpaceOnUse">
<stop stop-color="white" stop-opacity="0.08"/>
<stop offset="1" stop-color="white" stop-opacity="0"/>
</linearGradient>
<linearGradient id="paint11_linear_1_1900" x1="214.104" y1="-8" x2="214.104" y2="435.024" gradientUnits="userSpaceOnUse">
<stop stop-color="white" stop-opacity="0.08"/>
<stop offset="1" stop-color="white" stop-opacity="0"/>
</linearGradient>
<linearGradient id="paint12_linear_1_1900" x1="214.104" y1="-8" x2="214.104" y2="435.024" gradientUnits="userSpaceOnUse">
<stop stop-color="white" stop-opacity="0.08"/>
<stop offset="1" stop-color="white" stop-opacity="0"/>
</linearGradient>
<linearGradient id="paint13_linear_1_1900" x1="214.104" y1="-8" x2="214.104" y2="435.024" gradientUnits="userSpaceOnUse">
<stop stop-color="white" stop-opacity="0.08"/>
<stop offset="1" stop-color="white" stop-opacity="0"/>
</linearGradient>
<linearGradient id="paint14_linear_1_1900" x1="214.104" y1="-8" x2="214.104" y2="435.024" gradientUnits="userSpaceOnUse">
<stop stop-color="white" stop-opacity="0.08"/>
<stop offset="1" stop-color="white" stop-opacity="0"/>
</linearGradient>
<linearGradient id="paint15_linear_1_1900" x1="214.104" y1="-8" x2="214.104" y2="435.024" gradientUnits="userSpaceOnUse">
<stop stop-color="white" stop-opacity="0.08"/>
<stop offset="1" stop-color="white" stop-opacity="0"/>
</linearGradient>
<linearGradient id="paint16_linear_1_1900" x1="214.104" y1="-8" x2="214.104" y2="435.024" gradientUnits="userSpaceOnUse">
<stop stop-color="white" stop-opacity="0.08"/>
<stop offset="1" stop-color="white" stop-opacity="0"/>
</linearGradient>
<linearGradient id="paint17_linear_1_1900" x1="214.104" y1="-8" x2="214.104" y2="435.024" gradientUnits="userSpaceOnUse">
<stop stop-color="white" stop-opacity="0.08"/>
<stop offset="1" stop-color="white" stop-opacity="0"/>
</linearGradient>
<linearGradient id="paint18_linear_1_1900" x1="214.104" y1="-8" x2="214.104" y2="435.024" gradientUnits="userSpaceOnUse">
<stop stop-color="white" stop-opacity="0.08"/>
<stop offset="1" stop-color="white" stop-opacity="0"/>
</linearGradient>
<linearGradient id="paint19_linear_1_1900" x1="214.104" y1="-8" x2="214.104" y2="435.024" gradientUnits="userSpaceOnUse">
<stop stop-color="white" stop-opacity="0.08"/>
<stop offset="1" stop-color="white" stop-opacity="0"/>
</linearGradient>
<linearGradient id="paint20_linear_1_1900" x1="214.104" y1="-8" x2="214.104" y2="435.024" gradientUnits="userSpaceOnUse">
<stop stop-color="white" stop-opacity="0.08"/>
<stop offset="1" stop-color="white" stop-opacity="0"/>
</linearGradient>
<linearGradient id="paint21_linear_1_1900" x1="214.104" y1="-8" x2="214.104" y2="435.024" gradientUnits="userSpaceOnUse">
<stop stop-color="white" stop-opacity="0.08"/>
<stop offset="1" stop-color="white" stop-opacity="0"/>
</linearGradient>
<linearGradient id="paint22_linear_1_1900" x1="214.104" y1="-8" x2="214.104" y2="435.024" gradientUnits="userSpaceOnUse">
<stop stop-color="white" stop-opacity="0.08"/>
<stop offset="1" stop-color="white" stop-opacity="0"/>
</linearGradient>
<linearGradient id="paint23_linear_1_1900" x1="214.104" y1="-8" x2="214.104" y2="435.024" gradientUnits="userSpaceOnUse">
<stop stop-color="white" stop-opacity="0.08"/>
<stop offset="1" stop-color="white" stop-opacity="0"/>
</linearGradient>
<linearGradient id="paint24_linear_1_1900" x1="214.104" y1="-8" x2="214.104" y2="435.024" gradientUnits="userSpaceOnUse">
<stop stop-color="white" stop-opacity="0.08"/>
<stop offset="1" stop-color="white" stop-opacity="0"/>
</linearGradient>
<linearGradient id="paint25_linear_1_1900" x1="214.104" y1="-8" x2="214.104" y2="435.024" gradientUnits="userSpaceOnUse">
<stop stop-color="white" stop-opacity="0.08"/>
<stop offset="1" stop-color="white" stop-opacity="0"/>
</linearGradient>
<linearGradient id="paint26_linear_1_1900" x1="214.104" y1="-8" x2="214.104" y2="435.024" gradientUnits="userSpaceOnUse">
<stop stop-color="white" stop-opacity="0.08"/>
<stop offset="1" stop-color="white" stop-opacity="0"/>
</linearGradient>
<linearGradient id="paint27_linear_1_1900" x1="214.104" y1="-8" x2="214.104" y2="435.024" gradientUnits="userSpaceOnUse">
<stop stop-color="white" stop-opacity="0.08"/>
<stop offset="1" stop-color="white" stop-opacity="0"/>
</linearGradient>
<linearGradient id="paint28_linear_1_1900" x1="214.104" y1="-8" x2="214.104" y2="435.024" gradientUnits="userSpaceOnUse">
<stop stop-color="white" stop-opacity="0.08"/>
<stop offset="1" stop-color="white" stop-opacity="0"/>
</linearGradient>
<linearGradient id="paint29_linear_1_1900" x1="214.104" y1="-8" x2="214.104" y2="435.024" gradientUnits="userSpaceOnUse">
<stop stop-color="white" stop-opacity="0.08"/>
<stop offset="1" stop-color="white" stop-opacity="0"/>
</linearGradient>
<linearGradient id="paint30_linear_1_1900" x1="214.104" y1="-8" x2="214.104" y2="435.024" gradientUnits="userSpaceOnUse">
<stop stop-color="white" stop-opacity="0.08"/>
<stop offset="1" stop-color="white" stop-opacity="0"/>
</linearGradient>
<linearGradient id="paint31_linear_1_1900" x1="214.104" y1="-8" x2="214.104" y2="435.024" gradientUnits="userSpaceOnUse">
<stop stop-color="white" stop-opacity="0.08"/>
<stop offset="1" stop-color="white" stop-opacity="0"/>
</linearGradient>
<linearGradient id="paint32_linear_1_1900" x1="214.104" y1="-8" x2="214.104" y2="435.024" gradientUnits="userSpaceOnUse">
<stop stop-color="white" stop-opacity="0.08"/>
<stop offset="1" stop-color="white" stop-opacity="0"/>
</linearGradient>
<linearGradient id="paint33_linear_1_1900" x1="214.104" y1="-8" x2="214.104" y2="435.024" gradientUnits="userSpaceOnUse">
<stop stop-color="white" stop-opacity="0.08"/>
<stop offset="1" stop-color="white" stop-opacity="0"/>
</linearGradient>
<linearGradient id="paint34_linear_1_1900" x1="214.104" y1="-8" x2="214.104" y2="435.024" gradientUnits="userSpaceOnUse">
<stop stop-color="white" stop-opacity="0.08"/>
<stop offset="1" stop-color="white" stop-opacity="0"/>
</linearGradient>
<linearGradient id="paint35_linear_1_1900" x1="214.104" y1="-8" x2="214.104" y2="435.024" gradientUnits="userSpaceOnUse">
<stop stop-color="white" stop-opacity="0.08"/>
<stop offset="1" stop-color="white" stop-opacity="0"/>
</linearGradient>
<linearGradient id="paint36_linear_1_1900" x1="214.104" y1="-8" x2="214.104" y2="435.024" gradientUnits="userSpaceOnUse">
<stop stop-color="white" stop-opacity="0.08"/>
<stop offset="1" stop-color="white" stop-opacity="0"/>
</linearGradient>
<linearGradient id="paint37_linear_1_1900" x1="214.104" y1="-8" x2="214.104" y2="435.024" gradientUnits="userSpaceOnUse">
<stop stop-color="white" stop-opacity="0.08"/>
<stop offset="1" stop-color="white" stop-opacity="0"/>
</linearGradient>
<linearGradient id="paint38_linear_1_1900" x1="214.104" y1="-8" x2="214.104" y2="435.024" gradientUnits="userSpaceOnUse">
<stop stop-color="white" stop-opacity="0.08"/>
<stop offset="1" stop-color="white" stop-opacity="0"/>
</linearGradient>
<linearGradient id="paint39_linear_1_1900" x1="214.104" y1="-8" x2="214.104" y2="435.024" gradientUnits="userSpaceOnUse">
<stop stop-color="white" stop-opacity="0.08"/>
<stop offset="1" stop-color="white" stop-opacity="0"/>
</linearGradient>
<linearGradient id="paint40_linear_1_1900" x1="214.104" y1="-8" x2="214.104" y2="435.024" gradientUnits="userSpaceOnUse">
<stop stop-color="white" stop-opacity="0.08"/>
<stop offset="1" stop-color="white" stop-opacity="0"/>
</linearGradient>
<linearGradient id="paint41_linear_1_1900" x1="214.104" y1="-8" x2="214.104" y2="435.024" gradientUnits="userSpaceOnUse">
<stop stop-color="white" stop-opacity="0.08"/>
<stop offset="1" stop-color="white" stop-opacity="0"/>
</linearGradient>
<linearGradient id="paint42_linear_1_1900" x1="214.104" y1="-8" x2="214.104" y2="435.024" gradientUnits="userSpaceOnUse">
<stop stop-color="white" stop-opacity="0.08"/>
<stop offset="1" stop-color="white" stop-opacity="0"/>
</linearGradient>
<linearGradient id="paint43_linear_1_1900" x1="214.104" y1="-8" x2="214.104" y2="435.024" gradientUnits="userSpaceOnUse">
<stop stop-color="white" stop-opacity="0.08"/>
<stop offset="1" stop-color="white" stop-opacity="0"/>
</linearGradient>
<linearGradient id="paint44_linear_1_1900" x1="214.104" y1="-8" x2="214.104" y2="435.024" gradientUnits="userSpaceOnUse">
<stop stop-color="white" stop-opacity="0.08"/>
<stop offset="1" stop-color="white" stop-opacity="0"/>
</linearGradient>
<linearGradient id="paint45_linear_1_1900" x1="214.104" y1="-8" x2="214.104" y2="435.024" gradientUnits="userSpaceOnUse">
<stop stop-color="white" stop-opacity="0.08"/>
<stop offset="1" stop-color="white" stop-opacity="0"/>
</linearGradient>
<linearGradient id="paint46_linear_1_1900" x1="214.104" y1="-8" x2="214.104" y2="435.024" gradientUnits="userSpaceOnUse">
<stop stop-color="white" stop-opacity="0.08"/>
<stop offset="1" stop-color="white" stop-opacity="0"/>
</linearGradient>
<linearGradient id="paint47_linear_1_1900" x1="214.104" y1="-8" x2="214.104" y2="435.024" gradientUnits="userSpaceOnUse">
<stop stop-color="white" stop-opacity="0.08"/>
<stop offset="1" stop-color="white" stop-opacity="0"/>
</linearGradient>
<linearGradient id="paint48_linear_1_1900" x1="214.104" y1="-8" x2="214.104" y2="435.024" gradientUnits="userSpaceOnUse">
<stop stop-color="white" stop-opacity="0.08"/>
<stop offset="1" stop-color="white" stop-opacity="0"/>
</linearGradient>
<linearGradient id="paint49_linear_1_1900" x1="214.104" y1="-8" x2="214.104" y2="435.024" gradientUnits="userSpaceOnUse">
<stop stop-color="white" stop-opacity="0.08"/>
<stop offset="1" stop-color="white" stop-opacity="0"/>
</linearGradient>
<linearGradient id="paint50_linear_1_1900" x1="214.104" y1="-8" x2="214.104" y2="435.024" gradientUnits="userSpaceOnUse">
<stop stop-color="white" stop-opacity="0.08"/>
<stop offset="1" stop-color="white" stop-opacity="0"/>
</linearGradient>
<linearGradient id="paint51_linear_1_1900" x1="214.104" y1="-8" x2="214.104" y2="435.024" gradientUnits="userSpaceOnUse">
<stop stop-color="white" stop-opacity="0.08"/>
<stop offset="1" stop-color="white" stop-opacity="0"/>
</linearGradient>
<linearGradient id="paint52_linear_1_1900" x1="214.104" y1="-8" x2="214.104" y2="435.024" gradientUnits="userSpaceOnUse">
<stop stop-color="white" stop-opacity="0.08"/>
<stop offset="1" stop-color="white" stop-opacity="0"/>
</linearGradient>
<linearGradient id="paint53_linear_1_1900" x1="214.104" y1="-8" x2="214.104" y2="435.024" gradientUnits="userSpaceOnUse">
<stop stop-color="white" stop-opacity="0.08"/>
<stop offset="1" stop-color="white" stop-opacity="0"/>
</linearGradient>
<linearGradient id="paint54_linear_1_1900" x1="214.104" y1="-8" x2="214.104" y2="435.024" gradientUnits="userSpaceOnUse">
<stop stop-color="white" stop-opacity="0.08"/>
<stop offset="1" stop-color="white" stop-opacity="0"/>
</linearGradient>
<linearGradient id="paint55_linear_1_1900" x1="214.104" y1="-8" x2="214.104" y2="435.024" gradientUnits="userSpaceOnUse">
<stop stop-color="white" stop-opacity="0.08"/>
<stop offset="1" stop-color="white" stop-opacity="0"/>
</linearGradient>
<linearGradient id="paint56_linear_1_1900" x1="214.104" y1="-8" x2="214.104" y2="435.024" gradientUnits="userSpaceOnUse">
<stop stop-color="white" stop-opacity="0.08"/>
<stop offset="1" stop-color="white" stop-opacity="0"/>
</linearGradient>
<linearGradient id="paint57_linear_1_1900" x1="214.104" y1="-8" x2="214.104" y2="435.024" gradientUnits="userSpaceOnUse">
<stop stop-color="white" stop-opacity="0.08"/>
<stop offset="1" stop-color="white" stop-opacity="0"/>
</linearGradient>
<linearGradient id="paint58_linear_1_1900" x1="214.104" y1="-8" x2="214.104" y2="435.024" gradientUnits="userSpaceOnUse">
<stop stop-color="white" stop-opacity="0.08"/>
<stop offset="1" stop-color="white" stop-opacity="0"/>
</linearGradient>
<linearGradient id="paint59_linear_1_1900" x1="214.104" y1="-8" x2="214.104" y2="435.024" gradientUnits="userSpaceOnUse">
<stop stop-color="white" stop-opacity="0.08"/>
<stop offset="1" stop-color="white" stop-opacity="0"/>
</linearGradient>
<linearGradient id="paint60_linear_1_1900" x1="214.104" y1="-8" x2="214.104" y2="435.024" gradientUnits="userSpaceOnUse">
<stop stop-color="white" stop-opacity="0.08"/>
<stop offset="1" stop-color="white" stop-opacity="0"/>
</linearGradient>
<linearGradient id="paint61_linear_1_1900" x1="214.104" y1="-8" x2="214.104" y2="435.024" gradientUnits="userSpaceOnUse">
<stop stop-color="white" stop-opacity="0.08"/>
<stop offset="1" stop-color="white" stop-opacity="0"/>
</linearGradient>
<linearGradient id="paint62_linear_1_1900" x1="214.104" y1="-8" x2="214.104" y2="435.024" gradientUnits="userSpaceOnUse">
<stop stop-color="white" stop-opacity="0.08"/>
<stop offset="1" stop-color="white" stop-opacity="0"/>
</linearGradient>
<linearGradient id="paint63_linear_1_1900" x1="214.104" y1="934" x2="214.104" y2="490.976" gradientUnits="userSpaceOnUse">
<stop stop-color="white" stop-opacity="0.05"/>
<stop offset="1" stop-color="white" stop-opacity="0"/>
</linearGradient>
<linearGradient id="paint64_linear_1_1900" x1="214.104" y1="934" x2="214.104" y2="490.976" gradientUnits="userSpaceOnUse">
<stop stop-color="white" stop-opacity="0.05"/>
<stop offset="1" stop-color="white" stop-opacity="0"/>
</linearGradient>
<linearGradient id="paint65_linear_1_1900" x1="214.104" y1="934" x2="214.104" y2="490.976" gradientUnits="userSpaceOnUse">
<stop stop-color="white" stop-opacity="0.05"/>
<stop offset="1" stop-color="white" stop-opacity="0"/>
</linearGradient>
<linearGradient id="paint66_linear_1_1900" x1="214.104" y1="934" x2="214.104" y2="490.976" gradientUnits="userSpaceOnUse">
<stop stop-color="white" stop-opacity="0.05"/>
<stop offset="1" stop-color="white" stop-opacity="0"/>
</linearGradient>
<linearGradient id="paint67_linear_1_1900" x1="214.104" y1="934" x2="214.104" y2="490.976" gradientUnits="userSpaceOnUse">
<stop stop-color="white" stop-opacity="0.05"/>
<stop offset="1" stop-color="white" stop-opacity="0"/>
</linearGradient>
<linearGradient id="paint68_linear_1_1900" x1="214.104" y1="934" x2="214.104" y2="490.976" gradientUnits="userSpaceOnUse">
<stop stop-color="white" stop-opacity="0.05"/>
<stop offset="1" stop-color="white" stop-opacity="0"/>
</linearGradient>
<linearGradient id="paint69_linear_1_1900" x1="214.104" y1="934" x2="214.104" y2="490.976" gradientUnits="userSpaceOnUse">
<stop stop-color="white" stop-opacity="0.05"/>
<stop offset="1" stop-color="white" stop-opacity="0"/>
</linearGradient>
<linearGradient id="paint70_linear_1_1900" x1="214.104" y1="934" x2="214.104" y2="490.976" gradientUnits="userSpaceOnUse">
<stop stop-color="white" stop-opacity="0.05"/>
<stop offset="1" stop-color="white" stop-opacity="0"/>
</linearGradient>
<linearGradient id="paint71_linear_1_1900" x1="214.104" y1="934" x2="214.104" y2="490.976" gradientUnits="userSpaceOnUse">
<stop stop-color="white" stop-opacity="0.05"/>
<stop offset="1" stop-color="white" stop-opacity="0"/>
</linearGradient>
<linearGradient id="paint72_linear_1_1900" x1="214.104" y1="934" x2="214.104" y2="490.976" gradientUnits="userSpaceOnUse">
<stop stop-color="white" stop-opacity="0.05"/>
<stop offset="1" stop-color="white" stop-opacity="0"/>
</linearGradient>
<linearGradient id="paint73_linear_1_1900" x1="214.104" y1="934" x2="214.104" y2="490.976" gradientUnits="userSpaceOnUse">
<stop stop-color="white" stop-opacity="0.05"/>
<stop offset="1" stop-color="white" stop-opacity="0"/>
</linearGradient>
<linearGradient id="paint74_linear_1_1900" x1="214.104" y1="934" x2="214.104" y2="490.976" gradientUnits="userSpaceOnUse">
<stop stop-color="white" stop-opacity="0.05"/>
<stop offset="1" stop-color="white" stop-opacity="0"/>
</linearGradient>
<linearGradient id="paint75_linear_1_1900" x1="214.104" y1="934" x2="214.104" y2="490.976" gradientUnits="userSpaceOnUse">
<stop stop-color="white" stop-opacity="0.05"/>
<stop offset="1" stop-color="white" stop-opacity="0"/>
</linearGradient>
<linearGradient id="paint76_linear_1_1900" x1="214.104" y1="934" x2="214.104" y2="490.976" gradientUnits="userSpaceOnUse">
<stop stop-color="white" stop-opacity="0.05"/>
<stop offset="1" stop-color="white" stop-opacity="0"/>
</linearGradient>
<linearGradient id="paint77_linear_1_1900" x1="214.104" y1="934" x2="214.104" y2="490.976" gradientUnits="userSpaceOnUse">
<stop stop-color="white" stop-opacity="0.05"/>
<stop offset="1" stop-color="white" stop-opacity="0"/>
</linearGradient>
<linearGradient id="paint78_linear_1_1900" x1="214.104" y1="934" x2="214.104" y2="490.976" gradientUnits="userSpaceOnUse">
<stop stop-color="white" stop-opacity="0.05"/>
<stop offset="1" stop-color="white" stop-opacity="0"/>
</linearGradient>
<linearGradient id="paint79_linear_1_1900" x1="214.104" y1="934" x2="214.104" y2="490.976" gradientUnits="userSpaceOnUse">
<stop stop-color="white" stop-opacity="0.05"/>
<stop offset="1" stop-color="white" stop-opacity="0"/>
</linearGradient>
<linearGradient id="paint80_linear_1_1900" x1="214.104" y1="934" x2="214.104" y2="490.976" gradientUnits="userSpaceOnUse">
<stop stop-color="white" stop-opacity="0.05"/>
<stop offset="1" stop-color="white" stop-opacity="0"/>
</linearGradient>
<linearGradient id="paint81_linear_1_1900" x1="214.104" y1="934" x2="214.104" y2="490.976" gradientUnits="userSpaceOnUse">
<stop stop-color="white" stop-opacity="0.05"/>
<stop offset="1" stop-color="white" stop-opacity="0"/>
</linearGradient>
<linearGradient id="paint82_linear_1_1900" x1="214.104" y1="934" x2="214.104" y2="490.976" gradientUnits="userSpaceOnUse">
<stop stop-color="white" stop-opacity="0.05"/>
<stop offset="1" stop-color="white" stop-opacity="0"/>
</linearGradient>
<linearGradient id="paint83_linear_1_1900" x1="214.104" y1="934" x2="214.104" y2="490.976" gradientUnits="userSpaceOnUse">
<stop stop-color="white" stop-opacity="0.05"/>
<stop offset="1" stop-color="white" stop-opacity="0"/>
</linearGradient>
<linearGradient id="paint84_linear_1_1900" x1="214.104" y1="934" x2="214.104" y2="490.976" gradientUnits="userSpaceOnUse">
<stop stop-color="white" stop-opacity="0.05"/>
<stop offset="1" stop-color="white" stop-opacity="0"/>
</linearGradient>
<linearGradient id="paint85_linear_1_1900" x1="214.104" y1="934" x2="214.104" y2="490.976" gradientUnits="userSpaceOnUse">
<stop stop-color="white" stop-opacity="0.05"/>
<stop offset="1" stop-color="white" stop-opacity="0"/>
</linearGradient>
<linearGradient id="paint86_linear_1_1900" x1="214.104" y1="934" x2="214.104" y2="490.976" gradientUnits="userSpaceOnUse">
<stop stop-color="white" stop-opacity="0.05"/>
<stop offset="1" stop-color="white" stop-opacity="0"/>
</linearGradient>
<linearGradient id="paint87_linear_1_1900" x1="214.104" y1="934" x2="214.104" y2="490.976" gradientUnits="userSpaceOnUse">
<stop stop-color="white" stop-opacity="0.05"/>
<stop offset="1" stop-color="white" stop-opacity="0"/>
</linearGradient>
<linearGradient id="paint88_linear_1_1900" x1="214.104" y1="934" x2="214.104" y2="490.976" gradientUnits="userSpaceOnUse">
<stop stop-color="white" stop-opacity="0.05"/>
<stop offset="1" stop-color="white" stop-opacity="0"/>
</linearGradient>
<linearGradient id="paint89_linear_1_1900" x1="214.104" y1="934" x2="214.104" y2="490.976" gradientUnits="userSpaceOnUse">
<stop stop-color="white" stop-opacity="0.05"/>
<stop offset="1" stop-color="white" stop-opacity="0"/>
</linearGradient>
<linearGradient id="paint90_linear_1_1900" x1="214.104" y1="934" x2="214.104" y2="490.976" gradientUnits="userSpaceOnUse">
<stop stop-color="white" stop-opacity="0.05"/>
<stop offset="1" stop-color="white" stop-opacity="0"/>
</linearGradient>
<linearGradient id="paint91_linear_1_1900" x1="214.104" y1="934" x2="214.104" y2="490.976" gradientUnits="userSpaceOnUse">
<stop stop-color="white" stop-opacity="0.05"/>
<stop offset="1" stop-color="white" stop-opacity="0"/>
</linearGradient>
<linearGradient id="paint92_linear_1_1900" x1="214.104" y1="934" x2="214.104" y2="490.976" gradientUnits="userSpaceOnUse">
<stop stop-color="white" stop-opacity="0.05"/>
<stop offset="1" stop-color="white" stop-opacity="0"/>
</linearGradient>
<linearGradient id="paint93_linear_1_1900" x1="214.104" y1="934" x2="214.104" y2="490.976" gradientUnits="userSpaceOnUse">
<stop stop-color="white" stop-opacity="0.05"/>
<stop offset="1" stop-color="white" stop-opacity="0"/>
</linearGradient>
<linearGradient id="paint94_linear_1_1900" x1="214.104" y1="934" x2="214.104" y2="490.976" gradientUnits="userSpaceOnUse">
<stop stop-color="white" stop-opacity="0.05"/>
<stop offset="1" stop-color="white" stop-opacity="0"/>
</linearGradient>
<linearGradient id="paint95_linear_1_1900" x1="214.104" y1="934" x2="214.104" y2="490.976" gradientUnits="userSpaceOnUse">
<stop stop-color="white" stop-opacity="0.05"/>
<stop offset="1" stop-color="white" stop-opacity="0"/>
</linearGradient>
<linearGradient id="paint96_linear_1_1900" x1="214.104" y1="934" x2="214.104" y2="490.976" gradientUnits="userSpaceOnUse">
<stop stop-color="white" stop-opacity="0.05"/>
<stop offset="1" stop-color="white" stop-opacity="0"/>
</linearGradient>
<linearGradient id="paint97_linear_1_1900" x1="214.104" y1="934" x2="214.104" y2="490.976" gradientUnits="userSpaceOnUse">
<stop stop-color="white" stop-opacity="0.05"/>
<stop offset="1" stop-color="white" stop-opacity="0"/>
</linearGradient>
<linearGradient id="paint98_linear_1_1900" x1="214.104" y1="934" x2="214.104" y2="490.976" gradientUnits="userSpaceOnUse">
<stop stop-color="white" stop-opacity="0.05"/>
<stop offset="1" stop-color="white" stop-opacity="0"/>
</linearGradient>
<linearGradient id="paint99_linear_1_1900" x1="214.104" y1="934" x2="214.104" y2="490.976" gradientUnits="userSpaceOnUse">
<stop stop-color="white" stop-opacity="0.05"/>
<stop offset="1" stop-color="white" stop-opacity="0"/>
</linearGradient>
<linearGradient id="paint100_linear_1_1900" x1="214.104" y1="934" x2="214.104" y2="490.976" gradientUnits="userSpaceOnUse">
<stop stop-color="white" stop-opacity="0.05"/>
<stop offset="1" stop-color="white" stop-opacity="0"/>
</linearGradient>
<linearGradient id="paint101_linear_1_1900" x1="214.104" y1="934" x2="214.104" y2="490.976" gradientUnits="userSpaceOnUse">
<stop stop-color="white" stop-opacity="0.05"/>
<stop offset="1" stop-color="white" stop-opacity="0"/>
</linearGradient>
<linearGradient id="paint102_linear_1_1900" x1="214.104" y1="934" x2="214.104" y2="490.976" gradientUnits="userSpaceOnUse">
<stop stop-color="white" stop-opacity="0.05"/>
<stop offset="1" stop-color="white" stop-opacity="0"/>
</linearGradient>
<linearGradient id="paint103_linear_1_1900" x1="214.104" y1="934" x2="214.104" y2="490.976" gradientUnits="userSpaceOnUse">
<stop stop-color="white" stop-opacity="0.05"/>
<stop offset="1" stop-color="white" stop-opacity="0"/>
</linearGradient>
<linearGradient id="paint104_linear_1_1900" x1="214.104" y1="934" x2="214.104" y2="490.976" gradientUnits="userSpaceOnUse">
<stop stop-color="white" stop-opacity="0.05"/>
<stop offset="1" stop-color="white" stop-opacity="0"/>
</linearGradient>
<linearGradient id="paint105_linear_1_1900" x1="214.104" y1="934" x2="214.104" y2="490.976" gradientUnits="userSpaceOnUse">
<stop stop-color="white" stop-opacity="0.05"/>
<stop offset="1" stop-color="white" stop-opacity="0"/>
</linearGradient>
<linearGradient id="paint106_linear_1_1900" x1="214.104" y1="934" x2="214.104" y2="490.976" gradientUnits="userSpaceOnUse">
<stop stop-color="white" stop-opacity="0.05"/>
<stop offset="1" stop-color="white" stop-opacity="0"/>
</linearGradient>
<linearGradient id="paint107_linear_1_1900" x1="214.104" y1="934" x2="214.104" y2="490.976" gradientUnits="userSpaceOnUse">
<stop stop-color="white" stop-opacity="0.05"/>
<stop offset="1" stop-color="white" stop-opacity="0"/>
</linearGradient>
<linearGradient id="paint108_linear_1_1900" x1="214.104" y1="934" x2="214.104" y2="490.976" gradientUnits="userSpaceOnUse">
<stop stop-color="white" stop-opacity="0.05"/>
<stop offset="1" stop-color="white" stop-opacity="0"/>
</linearGradient>
<linearGradient id="paint109_linear_1_1900" x1="214.104" y1="934" x2="214.104" y2="490.976" gradientUnits="userSpaceOnUse">
<stop stop-color="white" stop-opacity="0.05"/>
<stop offset="1" stop-color="white" stop-opacity="0"/>
</linearGradient>
<linearGradient id="paint110_linear_1_1900" x1="214.104" y1="934" x2="214.104" y2="490.976" gradientUnits="userSpaceOnUse">
<stop stop-color="white" stop-opacity="0.05"/>
<stop offset="1" stop-color="white" stop-opacity="0"/>
</linearGradient>
<linearGradient id="paint111_linear_1_1900" x1="214.104" y1="934" x2="214.104" y2="490.976" gradientUnits="userSpaceOnUse">
<stop stop-color="white" stop-opacity="0.05"/>
<stop offset="1" stop-color="white" stop-opacity="0"/>
</linearGradient>
<linearGradient id="paint112_linear_1_1900" x1="214.104" y1="934" x2="214.104" y2="490.976" gradientUnits="userSpaceOnUse">
<stop stop-color="white" stop-opacity="0.05"/>
<stop offset="1" stop-color="white" stop-opacity="0"/>
</linearGradient>
<linearGradient id="paint113_linear_1_1900" x1="214.104" y1="934" x2="214.104" y2="490.976" gradientUnits="userSpaceOnUse">
<stop stop-color="white" stop-opacity="0.05"/>
<stop offset="1" stop-color="white" stop-opacity="0"/>
</linearGradient>
<linearGradient id="paint114_linear_1_1900" x1="214.104" y1="934" x2="214.104" y2="490.976" gradientUnits="userSpaceOnUse">
<stop stop-color="white" stop-opacity="0.05"/>
<stop offset="1" stop-color="white" stop-opacity="0"/>
</linearGradient>
<linearGradient id="paint115_linear_1_1900" x1="214.104" y1="934" x2="214.104" y2="490.976" gradientUnits="userSpaceOnUse">
<stop stop-color="white" stop-opacity="0.05"/>
<stop offset="1" stop-color="white" stop-opacity="0"/>
</linearGradient>
<linearGradient id="paint116_linear_1_1900" x1="214.104" y1="934" x2="214.104" y2="490.976" gradientUnits="userSpaceOnUse">
<stop stop-color="white" stop-opacity="0.05"/>
<stop offset="1" stop-color="white" stop-opacity="0"/>
</linearGradient>
<linearGradient id="paint117_linear_1_1900" x1="214.104" y1="934" x2="214.104" y2="490.976" gradientUnits="userSpaceOnUse">
<stop stop-color="white" stop-opacity="0.05"/>
<stop offset="1" stop-color="white" stop-opacity="0"/>
</linearGradient>
<linearGradient id="paint118_linear_1_1900" x1="214.104" y1="934" x2="214.104" y2="490.976" gradientUnits="userSpaceOnUse">
<stop stop-color="white" stop-opacity="0.05"/>
<stop offset="1" stop-color="white" stop-opacity="0"/>
</linearGradient>
<linearGradient id="paint119_linear_1_1900" x1="214.104" y1="934" x2="214.104" y2="490.976" gradientUnits="userSpaceOnUse">
<stop stop-color="white" stop-opacity="0.05"/>
<stop offset="1" stop-color="white" stop-opacity="0"/>
</linearGradient>
<linearGradient id="paint120_linear_1_1900" x1="214.104" y1="934" x2="214.104" y2="490.976" gradientUnits="userSpaceOnUse">
<stop stop-color="white" stop-opacity="0.05"/>
<stop offset="1" stop-color="white" stop-opacity="0"/>
</linearGradient>
<linearGradient id="paint121_linear_1_1900" x1="214.104" y1="934" x2="214.104" y2="490.976" gradientUnits="userSpaceOnUse">
<stop stop-color="white" stop-opacity="0.05"/>
<stop offset="1" stop-color="white" stop-opacity="0"/>
</linearGradient>
<linearGradient id="paint122_linear_1_1900" x1="214.104" y1="934" x2="214.104" y2="490.976" gradientUnits="userSpaceOnUse">
<stop stop-color="white" stop-opacity="0.05"/>
<stop offset="1" stop-color="white" stop-opacity="0"/>
</linearGradient>
<linearGradient id="paint123_linear_1_1900" x1="214.104" y1="934" x2="214.104" y2="490.976" gradientUnits="userSpaceOnUse">
<stop stop-color="white" stop-opacity="0.05"/>
<stop offset="1" stop-color="white" stop-opacity="0"/>
</linearGradient>
</defs>
</svg>
